<?xml version="1.0" encoding="utf-8"?>
<!-- Generator: Adobe Illustrator 19.2.1, SVG Export Plug-In . SVG Version: 6.00 Build 0)  -->
<svg version="1.1" id="Livello_1" xmlns="http://www.w3.org/2000/svg" xmlns:xlink="http://www.w3.org/1999/xlink" x="0px" y="0px"
	 viewBox="0 0 922.4 903.7" style="enable-background:new 0 0 922.4 903.7;" xml:space="preserve">
<style type="text/css">
	.st0{opacity:0.3;}
	.st1{fill:#FFFFFF;}
</style>
<g class="st0">
	<path class="st1" d="M300.4,800.2c-1.6,0-3.2-0.5-4.6-1.4c-3.8-2.5-4.8-7.7-2.3-11.5c0.6-0.8,55.2-82.7,59.9-89.7
		c29.6-44.2,57.4-75,82.7-91.7c53.7-35.4,109.3-15.1,130.2-7.5c13.8,5,34.2,14.8,49.2,22c6.5,3.1,13.3,6.4,14.8,6.9
		c41.9,12.4,61.7-7.4,66.7-13.8c5.3-6.8,6.7-13.2,4.3-19.8c-4.7-12.7-23.9-25.3-44.5-29.3c-4.6-0.9-9.7-1.4-15.2-2
		c-20.5-2.1-46-4.8-55.5-29.2c-7.6-19.5-6.9-34.2,2-43.5c18.2-18.9,62-7.3,106.7,8.1c2.3,0.8,4.3,1.5,6,2
		c33.1,11,87.1,14.4,100.3-21.6c5.7-15.7,4.9-28.7-2.5-38.5c-9.8-13-36.2-24.9-73.1-22.3c-10.9,0.8-24.3,5.6-38.5,10.8
		c-26,9.4-55.6,20.1-78.3,6.8c-8.9-5.2-14.4-13.6-16-24.2c-3.2-22.3,11.4-47.5,21.3-58.1c13.7-14.6,30.3-26.1,46.3-37.2
		c11.8-8.1,23.9-16.5,34.4-25.9c15.2-13.5,46.7-41.7,44.8-68.8c-0.7-9.7-5.8-18.2-14.5-23.7c-10.1-6.5-23.1-7.9-34.1-3.8
		c-29.1,10.9-52.6,40.5-73.4,66.6c-2.8,3.6-5.6,7.1-8.3,10.4c-7.7,9.5-15.1,19.9-22.9,30.9c-18.1,25.5-36.8,51.9-61.5,69.4
		c-12.5,8.9-27.8,11.3-40.7,6.4c-12.6-4.8-21.7-15.9-25.1-30.6c-6.6-28.6,16.5-56.8,28.9-72c17.4-21.3,37.8-39.5,57.6-57.2
		c15.7-14,32-28.5,46.2-44.2c2.3-2.5,4.6-4.9,6.9-7.3c10.9-11.4,21.2-22.3,23.7-36.3c0.9-5.4,0.1-9.4-2.7-12.4
		c-5.4-5.8-17.4-7.5-26.9-6.6c-52.6,5-100.6,44.7-142.8,118c-16.6,28.9-30.9,60.8-42.5,94.7c-1.9,5.5-3.7,11.1-5.4,16.5
		c-9,27.8-18.4,56.5-37.3,81.3c-9.4,12.3-21.5,23.4-33.3,30.5c-16.5,9.9-32.9,12.4-47.2,7.3c-22-7.9-34.5-29.4-45.6-48.3
		c-5.8-9.9-11.3-19.3-17.6-26.3c-16.6-18.2-38.3-25.7-61-21.2c-15,3-23.4,14.7-22.9,32c0.7,27.4,22.7,51.3,41.8,69
		c5.4,5,11.8,10,18.7,15.3c22.7,17.5,48.4,37.3,48.5,68.9c0.1,33.4-23.4,67-40.6,91.6l-1.3,1.8c-3.4,4.9-42,56.8-43.6,59
		c-2.7,3.7-7.9,4.4-11.6,1.7c-3.7-2.7-4.4-7.9-1.7-11.6c13.8-18.6,40.7-54.9,43.3-58.6l1.3-1.8c16.8-24,37.7-54,37.6-82.1
		c-0.1-23.4-21.4-39.9-42-55.8c-7.2-5.5-13.9-10.7-19.9-16.3c-21.4-20-46.2-47.2-47-80.7c-0.7-25.4,13.2-44.1,36.2-48.7
		c28.6-5.7,55.7,3.6,76.4,26.3c7.5,8.2,13.7,18.8,19.7,29.1c10.1,17.3,20.6,35.2,36.9,41.1c23,8.3,49.7-16.3,61.8-32.2
		c17.2-22.5,25.7-48.7,34.7-76.4c1.8-5.5,3.6-11.1,5.5-16.7c11.9-35,26.6-67.8,43.8-97.7c45-78.3,97.4-120.7,155.6-126.2
		c6.4-0.6,28.2-1.5,40.6,11.9c4.4,4.8,9.1,13.2,6.8,26.5c-3.3,19-16.5,32.7-28,44.8c-2.3,2.4-4.5,4.7-6.6,7
		c-14.9,16.3-31.4,31.1-47.5,45.4c-19.3,17.2-39.3,35-55.8,55.3c-10.6,13-30.3,37.2-25.6,57.8c2.1,9.3,7.4,16,14.9,18.8
		c7.9,3,17.1,1.4,25.2-4.4c22.4-15.9,40.3-41.1,57.6-65.5c7.6-10.8,15.5-21.9,23.6-31.8c2.7-3.3,5.4-6.8,8.2-10.3
		c22.1-27.8,47.2-59.3,80.5-71.8c15.7-5.9,34.4-3.8,48.8,5.4c13.1,8.4,20.9,21.4,22,36.4c2.5,35.2-31.8,65.9-50.3,82.4
		c-11.3,10.1-23.9,18.8-36.1,27.2c-16,11.1-31.2,21.5-43.6,34.9c-8.5,9.1-19.2,29.6-17,44.4c0.8,5.6,3.4,9.6,8,12.3
		c16,9.4,40.6,0.5,64.3-8.1c15.3-5.5,29.8-10.8,43-11.7c28.8-2,69.1,4.3,87.5,28.9c13.7,18.2,10.2,39.5,4.8,54.1
		c-8,21.9-26.9,35.3-54.8,39c-19.9,2.6-44.6-0.2-66.3-7.4c-1.7-0.6-3.8-1.3-6.1-2.1c-12-4.1-32.1-11.1-50.8-14.6
		c-26.7-5.1-35.6-0.7-38.6,2.4c-5.1,5.3-2,17.1,1.4,26c5.4,13.9,20,16.5,41.8,18.7c5.6,0.6,11.4,1.2,16.6,2.2
		c21.9,4.2,49,18.5,56.9,39.8c3.1,8.4,4.5,21.5-6.8,35.8c-17.8,22.6-49.4,29.9-84.5,19.4c-2-0.6-5.9-2.4-17.2-7.8
		c-13.8-6.6-34.7-16.6-47.7-21.4c-20.5-7.5-68.6-25-115.4,5.7c-23.4,15.4-49.7,44.7-78,87.1c-4.7,7-59.3,88.9-59.9,89.7
		C305.7,798.9,303.1,800.2,300.4,800.2z"/>
</g>
</svg>
